<svg xmlns="http://www.w3.org/2000/svg" width="30" height="30" viewBox="0 0 30 30">
  <path id="icon-continue" d="M15.562.562a15,15,0,1,1-15,15A15,15,0,0,1,15.562.562ZM13.815,9.248l4.567,4.379H7.337a1.448,1.448,0,0,0-1.452,1.452v.968A1.448,1.448,0,0,0,7.337,17.5H18.381l-4.567,4.379a1.453,1.453,0,0,0-.024,2.075l.665.659a1.446,1.446,0,0,0,2.05,0l8.026-8.02a1.446,1.446,0,0,0,0-2.05L16.506,6.508a1.446,1.446,0,0,0-2.05,0l-.665.659a1.46,1.46,0,0,0,.024,2.081Z" transform="translate(-0.563 -0.563)" fill="#f9f9f9"/>
</svg>
